. 
  
http://www.torrentday.com/        :     The Hottest Private Tracker On The Net!!!


               www . TorrentDay . Com 
(((((((((((((= Enjoy No RAR releases =))))))))))))))))))))


...................................NFO:....................................

.                                                                                                     
       
     
     
       
       
     
     
                                         
                                         
                EXVID                    
                                         
         
                                         
         Filled the Archives             
                                         
         
                                         
                With:                    
                                         
         
                                         
                                    
     E240                           
                                    
     SP               (C) 2009      
                                         
     
     
     
                                                                                  
                                                                                   
                The.Misfortunates.2009.FESTiVAL.DVDRip.XviD-EXViD                   
                                                                                   
                                                                                  
     
                                                                                               
EXViD aims to iNTERNAL those releases which have been lost in the archives.
EXViD aims to PRE non-internal releases which have poor sources and are likely skipped by others. 
http://www.imdb.com/title/tt1075110/
Subtitles: NL, FR, EN
Date: 2010.11

Director:
Felix Van Groeningen

Genres:
Drama

13-year-old Gunther Strobbe grows up surrounded by alcohol, trash and his completely useless
father and uncles. Slowly but surely, he's being prepared for the same hapless life.
Can he defy his destiny? 

Cast
Credited cast:
Kenneth Vanbaeden  ...  Kleine Gunther Strobbe (13 jaar)  
Valentijn Dhaenens  ...  Gunther Strobbe  
Koen De Graeve  ...  Marcel 'Celle' Strobbe  
Wouter Hendrickx  ...  Lowie 'Petrol' Strobbe  
Johan Heldenbergh  ...  Pieter 'Breejen' Strobbe  
Bert Haelvoet  ...  Koen Strobbe  
Gilda De Bal  ...  Meetje Strobbe  
Natali Broods  ...  Tante Rosie  
Pauline Grossen  ...  Nichtje Sylvie  
Sofie Palmers  ...  Vriendin Gunther  
Guy Dermul  ...  Directeur school  
Jos Geens  ...  Andr  
Robbie Cleiren  ...  Deurwaarder  
Sara De Bosschere  ...  Nele Fockedey  
Wout Kelchtermans  ...  Kleine Franky               

Stats:
General
Format                           : AVI
Format/Info                      : Audio Video Interleave
File size                        : 700 MiB
Duration                         : 1h 44mn
Overall bit rate                 : 935 Kbps
Writing application              : VirtualDubMod 1.5.10.2 (build 2540/release)
Writing library                  : VirtualDubMod build 2540/release

Video
ID                               : 0
Format                           : MPEG-4 Visual
Format profile                   : Advanced Simple@L5
Format settings, BVOP            : Yes
Format settings, QPel            : No
Format settings, GMC             : No warppoints
Format settings, Matrix          : Default (H.263)
Muxing mode                      : Packed bitstream
Codec ID                         : XVID
Codec ID/Hint                    : XviD
Duration                         : 1h 44mn
Bit rate                         : 793 Kbps
Width                            : 624 pixels
Height                           : 256 pixels
Display aspect ratio             : 2.40:1
Frame rate                       : 25.000 fps
Color space                      : YUV
Chroma subsampling               : 4:2:0
Bit depth                        : 8 bits
Scan type                        : Progressive
Bits/(Pixel*Frame)               : 0.198
Stream size                      : 593 MiB (85%)
Writing library                  : XviD 1.2.1 (UTC 2008-12-04)

Audio
ID                               : 1
Format                           : MPEG Audio
Format version                   : Version 1
Format profile                   : Layer 3
Mode                             : Joint stereo
Mode extension                   : MS Stereo
Codec ID                         : 55
Codec ID/Hint                    : MP3
Duration                         : 1h 44mn
Bit rate mode                    : Variable
Bit rate                         : 128 Kbps
Channel(s)                       : 2 channels
Sampling rate                    : 48.0 KHz
Stream size                      : 97.2 MiB (14%)
Alignment                        : Aligned on interleaves
Interleave, duration             : 24 ms (0.60 video frame)
Interleave, preload duration     : 458 ms
Writing library                  : LAME3.90.
Encoding settings                : -m j -V 4 -q 2 -lowpass 17.6 --abr 128





Release notes:
Enjoy the official Belgian submission for the 2010 Academy Awards. Excellent movie!

Looking for:
75TB+ Archives
DUTCH/FLEMiSH Archives
                                                                                                    
Greets: CRBS EPiSODE FiCO FLS iLS KLASSiGER LiPSYNC MADE NODLABS RUNNER TNAN       
   

                                                                    ASCII DONE BY XX^NFO 2oo9